<svg width="48" height="48" viewBox="0 0 48 48" fill="none" xmlns="http://www.w3.org/2000/svg">
<path d="M30.666 29.44C29.6527 29.44 28.746 29.84 28.0527 30.4666L18.546 24.9333C18.6127 24.6266 18.666 24.32 18.666 24C18.666 23.68 18.6127 23.3733 18.546 23.0666L27.946 17.5866C28.666 18.2533 29.6127 18.6666 30.666 18.6666C31.7269 18.6666 32.7443 18.2452 33.4944 17.4951C34.2446 16.7449 34.666 15.7275 34.666 14.6666C34.666 13.6058 34.2446 12.5883 33.4944 11.8382C32.7443 11.0881 31.7269 10.6666 30.666 10.6666C29.6052 10.6666 28.5877 11.0881 27.8376 11.8382C27.0874 12.5883 26.666 13.6058 26.666 14.6666C26.666 14.9866 26.7193 15.2933 26.786 15.6L17.386 21.08C16.666 20.4133 15.7193 20 14.666 20C13.6051 20 12.5877 20.4214 11.8376 21.1715C11.0874 21.9217 10.666 22.9391 10.666 24C10.666 25.0608 11.0874 26.0782 11.8376 26.8284C12.5877 27.5785 13.6051 28 14.666 28C15.7193 28 16.666 27.5866 17.386 26.92L26.8793 32.4533C26.8127 32.7333 26.7727 33.0266 26.7727 33.3333C26.7727 35.48 28.5194 37.2133 30.666 37.2133C32.8127 37.2133 34.5593 35.48 34.5593 33.3333C34.5593 32.3007 34.1492 31.3104 33.419 30.5803C32.6889 29.8501 31.6986 29.44 30.666 29.44Z" fill="white"/>
</svg>
